<?xml version="1.0" encoding="utf-8"?>
<svg width="360" height="800" viewBox="0 0 360 800" fill="none" xmlns="http://www.w3.org/2000/svg">
  <g clip-path="url(#clip0_6_3)">
    <rect width="360" height="800" fill="url(#paint0_linear_6_3)"/>
    <path d="M0 181H260C315.228 181 360 225.772 360 281V800H0V181Z" fill="#E3E7EB"/>
    <path d="M174.94 376.32C174.567 376.373 174.06 376.4 173.42 376.4C171.393 376.4 169.847 375.84 168.78 374.72C167.767 373.547 167.26 372.107 167.26 370.4C167.26 368.587 167.847 367.067 169.02 365.84C170.247 364.613 171.9 364 173.98 364C176.113 364 177.82 364.613 179.1 365.84C180.38 367.013 181.02 368.747 181.02 371.04C181.02 374.133 180.087 377.28 178.22 380.48C176.353 383.627 174.06 386.267 171.34 388.4L169.74 386.72C173.207 383.04 174.94 379.573 174.94 376.32ZM193.66 376.32C193.287 376.373 192.78 376.4 192.14 376.4C190.113 376.4 188.567 375.84 187.5 374.72C186.487 373.547 185.98 372.107 185.98 370.4C185.98 368.587 186.567 367.067 187.74 365.84C188.967 364.613 190.62 364 192.7 364C194.833 364 196.54 364.613 197.82 365.84C199.1 367.013 199.74 368.747 199.74 371.04C199.74 374.133 198.807 377.28 196.94 380.48C195.073 383.627 192.78 386.267 190.06 388.4L188.46 386.72C191.927 383.04 193.66 379.573 193.66 376.32Z" fill="#0B0C0F" fill-opacity="0.25"/>
    <path d="M167.94 371.32C167.567 371.373 167.06 371.4 166.42 371.4C164.393 371.4 162.847 370.84 161.78 369.72C160.767 368.547 160.26 367.107 160.26 365.4C160.26 363.587 160.847 362.067 162.02 360.84C163.247 359.613 164.9 359 166.98 359C169.113 359 170.82 359.613 172.1 360.84C173.38 362.013 174.02 363.747 174.02 366.04C174.02 369.133 173.087 372.28 171.22 375.48C169.353 378.627 167.06 381.267 164.34 383.4L162.74 381.72C166.207 378.04 167.94 374.573 167.94 371.32ZM186.66 371.32C186.287 371.373 185.78 371.4 185.14 371.4C183.113 371.4 181.567 370.84 180.5 369.72C179.487 368.547 178.98 367.107 178.98 365.4C178.98 363.587 179.567 362.067 180.74 360.84C181.967 359.613 183.62 359 185.7 359C187.833 359 189.54 359.613 190.82 360.84C192.1 362.013 192.74 363.747 192.74 366.04C192.74 369.133 191.807 372.28 189.94 375.48C188.073 378.627 185.78 381.267 183.06 383.4L181.46 381.72C184.927 378.04 186.66 374.573 186.66 371.32Z" fill="#0B0C0F"/>
    <path d="M77.864 433.992V433.272C77.864 433.08 77.888 432.956 77.936 432.9C77.984 432.844 78.1 432.816 78.284 432.816H80.12C80.304 432.816 80.412 432.78 80.444 432.708C80.484 432.636 80.504 432.508 80.504 432.324V418.524C80.504 418.316 80.484 418.176 80.444 418.104C80.404 418.024 80.276 417.984 80.06 417.984H78.524C78.276 417.984 78.104 417.964 78.008 417.924C77.912 417.876 77.864 417.748 77.864 417.54V416.784C77.864 416.616 77.924 416.512 78.044 416.472C78.164 416.424 78.32 416.4 78.512 416.4H86.936C88.368 416.4 89.636 416.628 90.74 417.084C91.844 417.532 92.772 418.164 93.524 418.98C94.276 419.796 94.844 420.752 95.228 421.848C95.62 422.936 95.816 424.12 95.816 425.4C95.816 426.68 95.612 427.868 95.204 428.964C94.796 430.052 94.204 431.004 93.428 431.82C92.66 432.636 91.728 433.272 90.632 433.728C89.544 434.176 88.312 434.4 86.936 434.4H78.296C78.12 434.4 78.004 434.376 77.948 434.328C77.892 434.28 77.864 434.168 77.864 433.992ZM83.768 432.816H86.9C88.3 432.816 89.412 432.496 90.236 431.856C91.06 431.216 91.652 430.34 92.012 429.228C92.38 428.108 92.564 426.832 92.564 425.4C92.564 423.968 92.364 422.696 91.964 421.584C91.572 420.464 90.96 419.584 90.128 418.944C89.296 418.304 88.22 417.984 86.9 417.984H83.792C83.56 417.984 83.412 418.016 83.348 418.08C83.284 418.144 83.252 418.296 83.252 418.536V432.384C83.252 432.584 83.284 432.708 83.348 432.756C83.42 432.796 83.56 432.816 83.768 432.816ZM105.683 419.664L102.467 427.2C102.411 427.352 102.395 427.456 102.419 427.512C102.443 427.568 102.571 427.596 102.803 427.596H108.383C108.735 427.596 108.919 427.564 108.935 427.5C108.951 427.428 108.911 427.268 108.815 427.02L106.091 419.724C105.995 419.476 105.923 419.352 105.875 419.352C105.835 419.352 105.771 419.456 105.683 419.664ZM95.8672 433.872V433.164C95.8672 433.028 95.8912 432.936 95.9392 432.888C95.9952 432.84 96.0952 432.816 96.2392 432.816H97.8112C98.0592 432.816 98.2192 432.776 98.2912 432.696C98.3632 432.616 98.4352 432.496 98.5072 432.336L105.479 416.196C105.511 416.124 105.547 416.08 105.587 416.064C105.627 416.048 105.699 416.04 105.803 416.04H107.135C107.255 416.04 107.339 416.052 107.387 416.076C107.435 416.1 107.475 416.152 107.507 416.232L113.891 432.252C113.971 432.452 114.035 432.596 114.083 432.684C114.131 432.772 114.295 432.816 114.575 432.816H116.435C116.603 432.816 116.707 432.836 116.747 432.876C116.787 432.916 116.807 433.024 116.807 433.2V433.968C116.807 434.16 116.787 434.28 116.747 434.328C116.707 434.376 116.591 434.4 116.399 434.4H108.815C108.647 434.4 108.527 434.38 108.455 434.34C108.383 434.292 108.347 434.176 108.347 433.992V433.212C108.347 433.036 108.379 432.928 108.443 432.888C108.515 432.84 108.631 432.816 108.791 432.816H110.555C110.771 432.816 110.879 432.772 110.879 432.684C110.879 432.596 110.859 432.488 110.819 432.36L109.847 429.768C109.751 429.512 109.667 429.348 109.595 429.276C109.531 429.196 109.315 429.156 108.947 429.156H102.251C101.987 429.156 101.807 429.188 101.711 429.252C101.623 429.308 101.539 429.428 101.459 429.612L100.343 432.24C100.263 432.432 100.239 432.576 100.271 432.672C100.303 432.768 100.447 432.816 100.703 432.816H102.431C102.583 432.816 102.687 432.84 102.743 432.888C102.799 432.928 102.827 433.028 102.827 433.188V434.004C102.827 434.196 102.807 434.312 102.767 434.352C102.727 434.384 102.611 434.4 102.419 434.4H96.4912C96.2512 434.4 96.0872 434.376 95.9992 434.328C95.9112 434.28 95.8672 434.128 95.8672 433.872ZM123.277 418.416V432.312C123.277 432.52 123.309 432.66 123.373 432.732C123.445 432.804 123.573 432.84 123.757 432.84H125.881C126.009 432.84 126.093 432.876 126.133 432.948C126.173 433.012 126.193 433.108 126.193 433.236V433.98C126.193 434.148 126.153 434.26 126.073 434.316C126.001 434.372 125.873 434.4 125.689 434.4H118.345C118.161 434.4 118.033 434.372 117.961 434.316C117.889 434.26 117.853 434.148 117.853 433.98V433.212C117.853 433.068 117.889 432.972 117.961 432.924C118.041 432.868 118.193 432.84 118.417 432.84H119.749C119.957 432.84 120.137 432.808 120.289 432.744C120.449 432.68 120.529 432.516 120.529 432.252V418.392C120.529 418.224 120.513 418.112 120.481 418.056C120.449 417.992 120.337 417.96 120.145 417.96H118.297C118.129 417.96 118.013 417.932 117.949 417.876C117.885 417.812 117.853 417.708 117.853 417.564V416.76C117.853 416.584 117.877 416.48 117.925 416.448C117.981 416.416 118.089 416.4 118.249 416.4H125.725C125.925 416.4 126.053 416.428 126.109 416.484C126.165 416.532 126.193 416.652 126.193 416.844V417.432C126.193 417.648 126.145 417.792 126.049 417.864C125.961 417.928 125.833 417.96 125.665 417.96H123.757C123.549 417.96 123.417 417.984 123.361 418.032C123.305 418.08 123.277 418.208 123.277 418.416ZM130.238 417.984H128.486C128.334 417.984 128.234 417.96 128.186 417.912C128.138 417.856 128.114 417.744 128.114 417.576V416.784C128.114 416.616 128.138 416.512 128.186 416.472C128.242 416.424 128.354 416.4 128.522 416.4H135.698C135.898 416.4 136.03 416.424 136.094 416.472C136.166 416.512 136.202 416.632 136.202 416.832V417.552C136.202 417.744 136.17 417.864 136.106 417.912C136.042 417.96 135.926 417.984 135.758 417.984H134.006C133.822 417.984 133.69 418.012 133.61 418.068C133.538 418.124 133.502 418.256 133.502 418.464V432.384C133.502 432.576 133.538 432.696 133.61 432.744C133.69 432.792 133.826 432.816 134.018 432.816H138.434C139.474 432.816 140.29 432.66 140.882 432.348C141.474 432.028 141.894 431.54 142.142 430.884C142.398 430.22 142.53 429.372 142.538 428.34C142.538 428.212 142.554 428.12 142.586 428.064C142.618 428.008 142.698 427.98 142.826 427.98H143.522C143.69 427.98 143.806 427.996 143.87 428.028C143.942 428.06 143.978 428.16 143.978 428.328V433.836C143.978 434.068 143.954 434.22 143.906 434.292C143.866 434.364 143.73 434.4 143.498 434.4H128.63C128.438 434.4 128.302 434.376 128.222 434.328C128.15 434.28 128.114 434.152 128.114 433.944V433.2C128.114 433.056 128.13 432.956 128.162 432.9C128.194 432.844 128.278 432.816 128.414 432.816H130.178C130.41 432.816 130.562 432.792 130.634 432.744C130.714 432.688 130.754 432.544 130.754 432.312V418.464C130.754 418.256 130.722 418.124 130.658 418.068C130.594 418.012 130.454 417.984 130.238 417.984ZM148.316 433.992V433.296C148.316 433.072 148.352 432.936 148.424 432.888C148.496 432.84 148.636 432.816 148.844 432.816H150.476C150.684 432.816 150.816 432.788 150.872 432.732C150.928 432.676 150.956 432.544 150.956 432.336V428.052C150.956 427.692 150.936 427.42 150.896 427.236C150.856 427.052 150.768 426.864 150.632 426.672L145.112 418.44C144.992 418.248 144.888 418.124 144.8 418.068C144.712 418.012 144.5 417.984 144.164 417.984H142.892C142.732 417.984 142.62 417.968 142.556 417.936C142.5 417.904 142.472 417.804 142.472 417.636V416.904C142.472 416.696 142.5 416.56 142.556 416.496C142.62 416.432 142.752 416.4 142.952 416.4H150.392C150.592 416.4 150.72 416.428 150.776 416.484C150.832 416.54 150.86 416.668 150.86 416.868V417.48C150.86 417.688 150.836 417.824 150.788 417.888C150.74 417.952 150.608 417.984 150.392 417.984H148.832C148.512 417.984 148.316 418.024 148.244 418.104C148.18 418.176 148.204 418.3 148.316 418.476L152.288 424.38C152.44 424.604 152.552 424.756 152.624 424.836C152.696 424.908 152.768 424.904 152.84 424.824C152.92 424.736 153.032 424.58 153.176 424.356L157.028 418.512C157.196 418.256 157.248 418.104 157.184 418.056C157.12 418.008 156.896 417.984 156.512 417.984H154.772C154.572 417.984 154.444 417.956 154.388 417.9C154.34 417.844 154.316 417.728 154.316 417.552V416.916C154.316 416.7 154.34 416.56 154.388 416.496C154.436 416.432 154.564 416.4 154.772 416.4H161.3C161.492 416.4 161.608 416.432 161.648 416.496C161.696 416.56 161.72 416.688 161.72 416.88V417.504C161.72 417.72 161.684 417.856 161.612 417.912C161.548 417.96 161.404 417.984 161.18 417.984H160.076C159.676 417.984 159.428 418.04 159.332 418.152C159.244 418.264 159.124 418.432 158.972 418.656L154.112 425.904C153.976 426.104 153.876 426.284 153.812 426.444C153.748 426.604 153.716 426.868 153.716 427.236V432.324C153.716 432.556 153.736 432.696 153.776 432.744C153.816 432.792 153.956 432.816 154.196 432.816H156.212C156.364 432.816 156.464 432.836 156.512 432.876C156.568 432.908 156.596 432.996 156.596 433.14V433.92C156.596 434.144 156.552 434.28 156.464 434.328C156.376 434.376 156.228 434.4 156.02 434.4H148.844C148.676 434.4 148.544 434.38 148.448 434.34C148.36 434.3 148.316 434.184 148.316 433.992ZM170.123 425.4C170.123 424.104 170.327 422.896 170.735 421.776C171.143 420.656 171.727 419.672 172.487 418.824C173.255 417.976 174.183 417.316 175.271 416.844C176.367 416.364 177.599 416.124 178.967 416.124C180.335 416.124 181.567 416.364 182.663 416.844C183.759 417.316 184.687 417.976 185.447 418.824C186.215 419.672 186.799 420.656 187.199 421.776C187.607 422.896 187.811 424.104 187.811 425.4C187.811 427.048 187.467 428.556 186.779 429.924C186.091 431.292 185.143 432.388 183.935 433.212C183.719 433.348 183.595 433.452 183.563 433.524C183.531 433.588 183.591 433.728 183.743 433.944C183.967 434.304 184.191 434.596 184.415 434.82C184.647 435.044 184.891 435.156 185.147 435.156C185.587 435.156 185.947 435.04 186.227 434.808C186.515 434.576 186.735 434.276 186.887 433.908C187.047 433.54 187.143 433.156 187.175 432.756C187.183 432.636 187.203 432.552 187.235 432.504C187.275 432.456 187.367 432.432 187.511 432.432H188.099C188.299 432.432 188.431 432.456 188.495 432.504C188.559 432.552 188.587 432.672 188.579 432.864C188.563 433.504 188.471 434.108 188.303 434.676C188.143 435.244 187.907 435.744 187.595 436.176C187.291 436.608 186.919 436.948 186.479 437.196C186.039 437.444 185.539 437.568 184.979 437.568C184.411 437.568 183.935 437.436 183.551 437.172C183.167 436.908 182.835 436.556 182.555 436.116C182.283 435.684 182.031 435.216 181.799 434.712C181.719 434.528 181.627 434.424 181.523 434.4C181.427 434.376 181.255 434.396 181.007 434.46C180.375 434.604 179.695 434.676 178.967 434.676C177.599 434.676 176.367 434.44 175.271 433.968C174.183 433.488 173.255 432.824 172.487 431.976C171.727 431.128 171.143 430.144 170.735 429.024C170.327 427.904 170.123 426.696 170.123 425.4ZM176.591 432.672C176.935 432.848 177.303 432.98 177.695 433.068C178.087 433.156 178.511 433.2 178.967 433.2C179.247 433.2 179.511 433.184 179.759 433.152C180.007 433.12 180.247 433.08 180.479 433.032C180.751 432.96 180.907 432.884 180.947 432.804C180.995 432.716 180.975 432.572 180.887 432.372C180.647 431.868 180.395 431.396 180.131 430.956C179.867 430.508 179.547 430.148 179.171 429.876C178.803 429.596 178.339 429.456 177.779 429.456C177.259 429.456 176.843 429.612 176.531 429.924C176.219 430.228 176.027 430.592 175.955 431.016C175.883 431.44 175.951 431.832 176.159 432.192C176.199 432.368 176.343 432.528 176.591 432.672ZM183.083 431.196C183.619 430.492 183.999 429.636 184.223 428.628C184.447 427.62 184.559 426.544 184.559 425.4C184.559 424.32 184.451 423.312 184.235 422.376C184.027 421.432 183.699 420.604 183.251 419.892C182.811 419.172 182.235 418.612 181.523 418.212C180.819 417.804 179.967 417.6 178.967 417.6C177.975 417.6 177.123 417.804 176.411 418.212C175.707 418.612 175.131 419.172 174.683 419.892C174.235 420.604 173.903 421.432 173.687 422.376C173.479 423.312 173.375 424.32 173.375 425.4C173.375 426.28 173.447 427.116 173.591 427.908C173.743 428.7 173.983 429.42 174.311 430.068C174.431 430.324 174.515 430.456 174.563 430.464C174.619 430.472 174.667 430.352 174.707 430.104C174.763 429.648 174.903 429.18 175.127 428.7C175.351 428.212 175.683 427.8 176.123 427.464C176.563 427.128 177.131 426.96 177.827 426.96C178.547 426.96 179.175 427.168 179.711 427.584C180.255 427.992 180.735 428.516 181.151 429.156C181.567 429.796 181.947 430.456 182.291 431.136C182.451 431.456 182.571 431.612 182.651 431.604C182.739 431.588 182.883 431.452 183.083 431.196ZM203.376 417.984H201.312C201.144 417.984 201.032 417.956 200.976 417.9C200.928 417.844 200.904 417.728 200.904 417.552V416.928C200.904 416.704 200.936 416.56 201 416.496C201.064 416.432 201.2 416.4 201.408 416.4H207.72C207.928 416.4 208.068 416.428 208.14 416.484C208.212 416.532 208.248 416.668 208.248 416.892V417.516C208.248 417.724 208.212 417.856 208.14 417.912C208.068 417.96 207.928 417.984 207.72 417.984H206.172C205.932 417.984 205.776 418.012 205.704 418.068C205.64 418.124 205.608 418.264 205.608 418.488V427.2C205.608 429.776 205.052 431.684 203.94 432.924C202.828 434.156 201.064 434.772 198.648 434.772C197.304 434.772 196.176 434.584 195.264 434.208C194.352 433.832 193.62 433.304 193.068 432.624C192.524 431.936 192.132 431.128 191.892 430.2C191.652 429.272 191.532 428.26 191.532 427.164V418.5C191.532 418.26 191.484 418.116 191.388 418.068C191.292 418.012 191.136 417.984 190.92 417.984H189.336C189.12 417.984 188.992 417.952 188.952 417.888C188.912 417.816 188.892 417.672 188.892 417.456V416.868C188.892 416.66 188.928 416.532 189 416.484C189.08 416.428 189.216 416.4 189.408 416.4H196.608C196.808 416.4 196.948 416.424 197.028 416.472C197.116 416.52 197.16 416.652 197.16 416.868V417.444C197.16 417.692 197.12 417.844 197.04 417.9C196.968 417.956 196.816 417.984 196.584 417.984H194.892C194.62 417.984 194.448 418.016 194.376 418.08C194.312 418.136 194.28 418.296 194.28 418.56V426.888C194.28 428.096 194.42 429.164 194.7 430.092C194.98 431.012 195.472 431.736 196.176 432.264C196.88 432.784 197.86 433.044 199.116 433.044C200.268 433.044 201.192 432.852 201.888 432.468C202.592 432.076 203.104 431.452 203.424 430.596C203.744 429.732 203.904 428.6 203.904 427.2V418.536C203.904 418.304 203.872 418.156 203.808 418.092C203.752 418.02 203.608 417.984 203.376 417.984ZM209.334 425.4C209.334 424.104 209.538 422.896 209.946 421.776C210.354 420.656 210.938 419.672 211.698 418.824C212.466 417.976 213.394 417.316 214.482 416.844C215.578 416.364 216.81 416.124 218.178 416.124C219.546 416.124 220.778 416.364 221.874 416.844C222.97 417.316 223.898 417.976 224.658 418.824C225.426 419.672 226.01 420.656 226.41 421.776C226.818 422.896 227.022 424.104 227.022 425.4C227.022 426.696 226.81 427.904 226.386 429.024C225.962 430.144 225.358 431.128 224.574 431.976C223.79 432.824 222.854 433.488 221.766 433.968C220.686 434.44 219.49 434.676 218.178 434.676C216.81 434.676 215.578 434.44 214.482 433.968C213.394 433.488 212.466 432.824 211.698 431.976C210.938 431.128 210.354 430.144 209.946 429.024C209.538 427.904 209.334 426.696 209.334 425.4ZM212.586 425.4C212.586 426.472 212.69 427.48 212.898 428.424C213.114 429.368 213.446 430.2 213.894 430.92C214.342 431.632 214.918 432.192 215.622 432.6C216.334 433 217.186 433.2 218.178 433.2C219.234 433.2 220.118 433 220.83 432.6C221.55 432.192 222.126 431.632 222.558 430.92C222.99 430.2 223.298 429.368 223.482 428.424C223.674 427.48 223.77 426.472 223.77 425.4C223.77 424.32 223.662 423.312 223.446 422.376C223.238 421.432 222.91 420.604 222.462 419.892C222.022 419.172 221.446 418.612 220.734 418.212C220.03 417.804 219.178 417.6 218.178 417.6C217.186 417.6 216.334 417.804 215.622 418.212C214.918 418.612 214.342 419.172 213.894 419.892C213.446 420.604 213.114 421.432 212.898 422.376C212.69 423.312 212.586 424.32 212.586 425.4ZM233.198 433.896V433.26C233.198 433.06 233.234 432.936 233.306 432.888C233.386 432.84 233.518 432.816 233.702 432.816H235.622C235.918 432.816 236.102 432.78 236.174 432.708C236.246 432.628 236.282 432.436 236.282 432.132V418.392C236.282 418.176 236.25 418.036 236.186 417.972C236.122 417.9 235.986 417.864 235.778 417.864H234.758C233.742 417.864 232.95 417.996 232.382 418.26C231.822 418.524 231.426 418.972 231.194 419.604C230.962 420.228 230.834 421.096 230.81 422.208C230.802 422.4 230.77 422.536 230.714 422.616C230.666 422.688 230.53 422.724 230.306 422.724H229.814C229.606 422.724 229.478 422.672 229.43 422.568C229.39 422.456 229.37 422.308 229.37 422.124V417.048C229.37 416.768 229.398 416.592 229.454 416.52C229.51 416.44 229.674 416.4 229.946 416.4H245.378C245.602 416.4 245.738 416.436 245.786 416.508C245.842 416.58 245.87 416.732 245.87 416.964V422.304C245.87 422.496 245.838 422.616 245.774 422.664C245.718 422.704 245.586 422.724 245.378 422.724H244.934C244.694 422.724 244.55 422.68 244.502 422.592C244.462 422.496 244.438 422.348 244.43 422.148C244.406 421.052 244.274 420.196 244.034 419.58C243.802 418.956 243.406 418.516 242.846 418.26C242.286 417.996 241.502 417.864 240.494 417.864H239.426C239.218 417.864 239.09 417.9 239.042 417.972C238.994 418.036 238.97 418.172 238.97 418.38V432.084C238.97 432.404 239.002 432.608 239.066 432.696C239.138 432.776 239.326 432.816 239.63 432.816H241.526C241.766 432.816 241.914 432.852 241.97 432.924C242.026 432.996 242.054 433.156 242.054 433.404V433.872C242.054 434.12 241.994 434.272 241.874 434.328C241.754 434.376 241.582 434.4 241.358 434.4H233.762C233.53 434.4 233.378 434.372 233.306 434.316C233.234 434.26 233.198 434.12 233.198 433.896ZM250.377 417.984H248.769C248.561 417.984 248.433 417.948 248.385 417.876C248.345 417.804 248.325 417.672 248.325 417.48V416.868C248.325 416.676 248.349 416.552 248.397 416.496C248.453 416.432 248.577 416.4 248.769 416.4H263.577C263.849 416.4 264.021 416.428 264.093 416.484C264.165 416.54 264.201 416.704 264.201 416.976V421.764C264.201 421.964 264.193 422.096 264.177 422.16C264.169 422.216 264.061 422.244 263.853 422.244H263.121C262.945 422.244 262.837 422.208 262.797 422.136C262.765 422.056 262.745 421.94 262.737 421.788C262.713 420.828 262.589 420.072 262.365 419.52C262.141 418.968 261.773 418.576 261.261 418.344C260.757 418.104 260.057 417.984 259.161 417.984H254.265C254.041 417.984 253.893 418.016 253.821 418.08C253.749 418.136 253.713 418.284 253.713 418.524V423.984C253.713 424.176 253.733 424.316 253.773 424.404C253.813 424.492 253.929 424.536 254.121 424.536H255.537C256.449 424.536 257.121 424.316 257.553 423.876C257.993 423.436 258.245 422.876 258.309 422.196C258.325 422.028 258.353 421.916 258.393 421.86C258.433 421.804 258.517 421.776 258.645 421.776H259.173C259.325 421.776 259.429 421.804 259.485 421.86C259.541 421.916 259.569 422.02 259.569 422.172V428.1C259.569 428.292 259.549 428.42 259.509 428.484C259.469 428.548 259.357 428.58 259.173 428.58H258.657C258.561 428.58 258.481 428.556 258.417 428.508C258.353 428.452 258.313 428.332 258.297 428.148C258.257 427.684 258.133 427.272 257.925 426.912C257.717 426.544 257.417 426.252 257.025 426.036C256.633 425.82 256.141 425.712 255.549 425.712H254.181C253.981 425.712 253.853 425.748 253.797 425.82C253.741 425.892 253.713 426.04 253.713 426.264V432.288C253.713 432.52 253.741 432.668 253.797 432.732C253.861 432.788 254.013 432.816 254.253 432.816H258.921C259.977 432.816 260.793 432.688 261.369 432.432C261.945 432.168 262.349 431.724 262.581 431.1C262.821 430.468 262.953 429.592 262.977 428.472C262.977 428.296 262.997 428.18 263.037 428.124C263.077 428.068 263.165 428.04 263.301 428.04H263.985C264.153 428.04 264.269 428.064 264.333 428.112C264.405 428.152 264.441 428.26 264.441 428.436V433.98C264.441 434.164 264.417 434.28 264.369 434.328C264.321 434.376 264.209 434.4 264.033 434.4H248.817C248.633 434.4 248.505 434.38 248.433 434.34C248.361 434.292 248.325 434.168 248.325 433.968V433.152C248.325 432.984 248.353 432.888 248.409 432.864C248.473 432.832 248.589 432.816 248.757 432.816H250.329C250.617 432.816 250.793 432.78 250.857 432.708C250.929 432.636 250.965 432.456 250.965 432.168V418.488C250.965 418.248 250.929 418.104 250.857 418.056C250.785 418.008 250.625 417.984 250.377 417.984ZM278.728 421.884C278.656 421.028 278.404 420.284 277.972 419.652C277.548 419.012 276.996 418.516 276.316 418.164C275.644 417.812 274.896 417.636 274.072 417.636C272.76 417.636 271.82 417.9 271.252 418.428C270.692 418.956 270.412 419.608 270.412 420.384C270.412 421.064 270.6 421.608 270.976 422.016C271.36 422.416 271.864 422.736 272.488 422.976C273.12 423.216 273.812 423.432 274.564 423.624C275.316 423.816 276.068 424.032 276.82 424.272C277.572 424.512 278.26 424.828 278.884 425.22C279.516 425.612 280.02 426.132 280.396 426.78C280.78 427.428 280.972 428.264 280.972 429.288C280.972 430.464 280.708 431.464 280.18 432.288C279.652 433.104 278.892 433.724 277.9 434.148C276.908 434.564 275.724 434.772 274.348 434.772C273.42 434.772 272.568 434.616 271.792 434.304C271.016 433.992 270.36 433.6 269.824 433.128C269.64 432.96 269.508 432.892 269.428 432.924C269.356 432.948 269.268 433.084 269.164 433.332L268.804 434.184C268.74 434.344 268.672 434.44 268.6 434.472C268.536 434.504 268.388 434.52 268.156 434.52H267.628C267.436 434.52 267.308 434.492 267.244 434.436C267.18 434.388 267.148 434.272 267.148 434.088V428.52C267.148 428.344 267.18 428.24 267.244 428.208C267.308 428.168 267.432 428.148 267.616 428.148H268.288C268.464 428.148 268.572 428.184 268.612 428.256C268.66 428.32 268.688 428.428 268.696 428.58C268.768 429.332 269.02 430.068 269.452 430.788C269.892 431.508 270.492 432.104 271.252 432.576C272.02 433.048 272.936 433.284 274 433.284C275.032 433.284 275.868 433.12 276.508 432.792C277.148 432.456 277.616 432.032 277.912 431.52C278.208 431.008 278.356 430.488 278.356 429.96C278.356 429.208 278.168 428.612 277.792 428.172C277.416 427.732 276.912 427.38 276.28 427.116C275.656 426.844 274.968 426.616 274.216 426.432C273.464 426.24 272.712 426.036 271.96 425.82C271.208 425.604 270.52 425.316 269.896 424.956C269.272 424.596 268.768 424.116 268.384 423.516C268.008 422.916 267.82 422.132 267.82 421.164C267.82 420.3 267.976 419.556 268.288 418.932C268.6 418.3 269.028 417.776 269.572 417.36C270.124 416.944 270.752 416.64 271.456 416.448C272.168 416.248 272.916 416.148 273.7 416.148C274.476 416.148 275.204 416.272 275.884 416.52C276.564 416.76 277.148 417.088 277.636 417.504C277.78 417.632 277.9 417.7 277.996 417.708C278.1 417.708 278.204 417.596 278.308 417.372L278.668 416.568C278.708 416.496 278.74 416.452 278.764 416.436C278.796 416.412 278.868 416.4 278.98 416.4H279.904C280.064 416.4 280.164 416.428 280.204 416.484C280.252 416.54 280.276 416.652 280.276 416.82V422.016C280.276 422.192 280.244 422.296 280.18 422.328C280.116 422.36 279.996 422.376 279.82 422.376H279.184C278.944 422.376 278.812 422.348 278.788 422.292C278.772 422.236 278.752 422.1 278.728 421.884Z" fill="#0B0C0F"/>
    <path d="M77 449.4H78.0098V447.4H77V449.4ZM82.049 449.4H84.0686V447.4H82.049V449.4ZM88.1078 449.4H90.1274V447.4H88.1078V449.4ZM94.1667 449.4H96.1863V447.4H94.1667V449.4ZM100.225 449.4H102.245V447.4H100.225V449.4ZM106.284 449.4H108.304V447.4H106.284V449.4ZM112.343 449.4H114.363V447.4H112.343V449.4ZM118.402 449.4H120.422V447.4H118.402V449.4ZM124.461 449.4H126.48V447.4H124.461V449.4ZM130.52 449.4H132.539V447.4H130.52V449.4ZM136.578 449.4H138.598V447.4H136.578V449.4ZM142.637 449.4H144.657V447.4H142.637V449.4ZM148.696 449.4H150.716V447.4H148.696V449.4ZM154.755 449.4H156.775V447.4H154.755V449.4ZM160.814 449.4H162.833V447.4H160.814V449.4ZM166.873 449.4H168.892V447.4H166.873V449.4ZM172.931 449.4H174.951V447.4H172.931V449.4ZM178.99 449.4H181.01V447.4H178.99V449.4ZM185.049 449.4H187.069V447.4H185.049V449.4ZM191.108 449.4H193.127V447.4H191.108V449.4ZM197.167 449.4H199.186V447.4H197.167V449.4ZM203.225 449.4H205.245V447.4H203.225V449.4ZM209.284 449.4H211.304V447.4H209.284V449.4ZM215.343 449.4H217.363V447.4H215.343V449.4ZM221.402 449.4H223.422V447.4H221.402V449.4ZM227.461 449.4H229.48V447.4H227.461V449.4ZM233.52 449.4H235.539V447.4H233.52V449.4ZM239.578 449.4H241.598V447.4H239.578V449.4ZM245.637 449.4H247.657V447.4H245.637V449.4ZM251.696 449.4H253.716V447.4H251.696V449.4ZM257.755 449.4H259.774V447.4H257.755V449.4ZM263.814 449.4H265.833V447.4H263.814V449.4ZM269.873 449.4H271.892V447.4H269.873V449.4ZM275.931 449.4H277.951V447.4H275.931V449.4ZM281.99 449.4H283V447.4H281.99V449.4ZM77 450.4H78.0098V446.4H77V450.4ZM82.049 450.4H84.0686V446.4H82.049V450.4ZM88.1078 450.4H90.1274V446.4H88.1078V450.4ZM94.1667 450.4H96.1863V446.4H94.1667V450.4ZM100.225 450.4H102.245V446.4H100.225V450.4ZM106.284 450.4H108.304V446.4H106.284V450.4ZM112.343 450.4H114.363V446.4H112.343V450.4ZM118.402 450.4H120.422V446.4H118.402V450.4ZM124.461 450.4H126.48V446.4H124.461V450.4ZM130.52 450.4H132.539V446.4H130.52V450.4ZM136.578 450.4H138.598V446.4H136.578V450.4ZM142.637 450.4H144.657V446.4H142.637V450.4ZM148.696 450.4H150.716V446.4H148.696V450.4ZM154.755 450.4H156.775V446.4H154.755V450.4ZM160.814 450.4H162.833V446.4H160.814V450.4ZM166.873 450.4H168.892V446.4H166.873V450.4ZM172.931 450.4H174.951V446.4H172.931V450.4ZM178.99 450.4H181.01V446.4H178.99V450.4ZM185.049 450.4H187.069V446.4H185.049V450.4ZM191.108 450.4H193.127V446.4H191.108V450.4ZM197.167 450.4H199.186V446.4H197.167V450.4ZM203.225 450.4H205.245V446.4H203.225V450.4ZM209.284 450.4H211.304V446.4H209.284V450.4ZM215.343 450.4H217.363V446.4H215.343V450.4ZM221.402 450.4H223.422V446.4H221.402V450.4ZM227.461 450.4H229.48V446.4H227.461V450.4ZM233.52 450.4H235.539V446.4H233.52V450.4ZM239.578 450.4H241.598V446.4H239.578V450.4ZM245.637 450.4H247.657V446.4H245.637V450.4ZM251.696 450.4H253.716V446.4H251.696V450.4ZM257.755 450.4H259.774V446.4H257.755V450.4ZM263.814 450.4H265.833V446.4H263.814V450.4ZM269.873 450.4H271.892V446.4H269.873V450.4ZM275.931 450.4H277.951V446.4H275.931V450.4ZM281.99 450.4H283V446.4H281.99V450.4Z" fill="#0B0C0F" mask="url(#path-4-inside-1_6_3)"/>
    <path fill-rule="evenodd" clip-rule="evenodd" d="M0 0V24H360V0H0Z" fill="black" style="visibility: hidden;"/>
    <mask id="mask0_6_3" style="mask-type:luminance" maskUnits="userSpaceOnUse" x="250" y="6" width="16" height="12">
      <path fill-rule="evenodd" clip-rule="evenodd" d="M250 6L258 18L266 6H250Z" fill="white"/>
    </mask>
    <g mask="url(#mask0_6_3)" style="visibility: hidden;">
      <path fill-rule="evenodd" clip-rule="evenodd" d="M258 6C251.4 6 246 11.4 246 18C246 24.6 251.4 30 258 30C264.6 30 270 24.6 270 18C270 11.4 264.6 6 258 6ZM258 27C253 27 249 23 249 18C249 13 253 9 258 9C263 9 267 13 267 18C267 23 263 27 258 27Z" fill="white" fill-opacity="0.3"/>
      <path fill-rule="evenodd" clip-rule="evenodd" d="M258 9C253 9 249 13 249 18C249 23 253 27 258 27C263 27 267 23 267 18C267 13 263 9 258 9ZM258 24C254.7 24 252 21.3 252 18C252 14.7 254.7 12 258 12C261.3 12 264 14.7 264 18C264 21.3 261.3 24 258 24Z" fill="white" fill-opacity="0.9"/>
      <path fill-rule="evenodd" clip-rule="evenodd" d="M258 12C254.7 12 252 14.7 252 18C252 21.3 254.7 24 258 24C261.3 24 264 21.3 264 18C264 14.7 261.3 12 258 12ZM258 21C256.3 21 255 19.7 255 18C255 16.3 256.3 15 258 15C259.7 15 261 16.3 261 18C261 19.7 259.7 21 258 21Z" fill="white" fill-opacity="0.9"/>
      <path fill-rule="evenodd" clip-rule="evenodd" d="M258 21C259.657 21 261 19.6569 261 18C261 16.3431 259.657 15 258 15C256.343 15 255 16.3431 255 18C255 19.6569 256.343 21 258 21Z" fill="white" fill-opacity="0.9"/>
    </g>
    <mask id="mask1_6_3" style="mask-type:luminance" maskUnits="userSpaceOnUse" x="276" y="6" width="12" height="12">
      <path fill-rule="evenodd" clip-rule="evenodd" d="M288 18V6L276 18H288Z" fill="white"/>
    </mask>
    <g mask="url(#mask1_6_3)" style="visibility: hidden;">
      <path fill-rule="evenodd" clip-rule="evenodd" d="M285 6V18H288V6H285Z" fill="white" fill-opacity="0.3"/>
      <path fill-rule="evenodd" clip-rule="evenodd" d="M282 6V18H285V6H282Z" fill="white" fill-opacity="0.3"/>
      <path fill-rule="evenodd" clip-rule="evenodd" d="M279 6V18H282V6H279Z" fill="white" fill-opacity="0.9"/>
      <path fill-rule="evenodd" clip-rule="evenodd" d="M276 6V18H279V6H276Z" fill="white" fill-opacity="0.9"/>
    </g>
    <mask id="mask2_6_3" style="mask-type:luminance" maskUnits="userSpaceOnUse" x="302" y="5" width="8" height="13">
      <path fill-rule="evenodd" clip-rule="evenodd" d="M309 6H308V5H304V6H303C302.4 6 302 6.4 302 7V17C302 17.6 302.4 18 303 18H309C309.6 18 310 17.6 310 17V7C310 6.4 309.6 6 309 6Z" fill="white"/>
    </mask>
    <g mask="url(#mask2_6_3)" style="visibility: hidden;">
      <path fill-rule="evenodd" clip-rule="evenodd" d="M302 15V18H310V15H302Z" fill="white" fill-opacity="0.9"/>
      <path fill-rule="evenodd" clip-rule="evenodd" d="M302 12V15H310V12H302Z" fill="white" fill-opacity="0.9"/>
      <path fill-rule="evenodd" clip-rule="evenodd" d="M302 9V12H310V9H302Z" fill="white" fill-opacity="0.3"/>
      <path fill-rule="evenodd" clip-rule="evenodd" d="M302 6V9H310V6H302Z" fill="white" fill-opacity="0.3"/>
      <path fill-rule="evenodd" clip-rule="evenodd" d="M304 5V6H308V5H304Z" fill="white" fill-opacity="0.3"/>
    </g>
    <g opacity="0.9" style="visibility: hidden;">
      <path d="M323.627 17.0605H322.447V9.23389L320.079 10.1035V9.03711L323.443 7.77393H323.627V17.0605ZM333.124 17.0605H327.068V16.2163L330.267 12.6616C330.741 12.1242 331.067 11.6883 331.245 11.354C331.427 11.0155 331.518 10.6663 331.518 10.3066C331.518 9.82422 331.372 9.42855 331.08 9.11963C330.788 8.81071 330.398 8.65625 329.912 8.65625C329.328 8.65625 328.873 8.82341 328.547 9.15771C328.225 9.48779 328.064 9.94906 328.064 10.5415H326.89C326.89 9.69092 327.163 9.00326 327.709 8.47852C328.259 7.95378 328.993 7.69141 329.912 7.69141C330.771 7.69141 331.45 7.91781 331.949 8.37061C332.449 8.81917 332.698 9.41797 332.698 10.167C332.698 11.0768 332.118 12.1602 330.959 13.417L328.483 16.1021H333.124V17.0605ZM334.45 16.4448C334.45 16.2417 334.509 16.0724 334.628 15.937C334.751 15.8016 334.933 15.7339 335.174 15.7339C335.415 15.7339 335.597 15.8016 335.72 15.937C335.847 16.0724 335.91 16.2417 335.91 16.4448C335.91 16.6395 335.847 16.8024 335.72 16.9336C335.597 17.0648 335.415 17.1304 335.174 17.1304C334.933 17.1304 334.751 17.0648 334.628 16.9336C334.509 16.8024 334.45 16.6395 334.45 16.4448ZM334.457 10.8398C334.457 10.6367 334.516 10.4674 334.634 10.332C334.757 10.1966 334.939 10.1289 335.18 10.1289C335.421 10.1289 335.603 10.1966 335.726 10.332C335.853 10.4674 335.917 10.6367 335.917 10.8398C335.917 11.0345 335.853 11.1974 335.726 11.3286C335.603 11.4598 335.421 11.5254 335.18 11.5254C334.939 11.5254 334.757 11.4598 334.634 11.3286C334.516 11.1974 334.457 11.0345 334.457 10.8398ZM339.224 11.8682H340.106C340.66 11.8597 341.096 11.7137 341.414 11.4302C341.731 11.1466 341.89 10.7637 341.89 10.2812C341.89 9.19792 341.35 8.65625 340.271 8.65625C339.763 8.65625 339.357 8.80225 339.052 9.09424C338.752 9.382 338.602 9.76497 338.602 10.2432H337.427C337.427 9.51107 337.694 8.90381 338.227 8.42139C338.764 7.93473 339.446 7.69141 340.271 7.69141C341.143 7.69141 341.826 7.92204 342.321 8.3833C342.816 8.84456 343.064 9.48568 343.064 10.3066C343.064 10.7087 342.933 11.098 342.67 11.4746C342.412 11.8512 342.059 12.1326 341.61 12.3188C342.118 12.4797 342.51 12.7463 342.785 13.1187C343.064 13.491 343.204 13.946 343.204 14.4834C343.204 15.3128 342.933 15.9709 342.391 16.4575C341.849 16.9442 341.145 17.1875 340.277 17.1875C339.41 17.1875 338.703 16.9526 338.157 16.4829C337.616 16.0132 337.345 15.3932 337.345 14.623H338.525C338.525 15.1097 338.684 15.499 339.001 15.791C339.319 16.083 339.744 16.229 340.277 16.229C340.844 16.229 341.278 16.0809 341.579 15.7847C341.879 15.4884 342.029 15.0632 342.029 14.5088C342.029 13.9714 341.864 13.5588 341.534 13.271C341.204 12.9832 340.728 12.8351 340.106 12.8267H339.224V11.8682ZM350.611 13.1187C350.611 14.494 350.376 15.516 349.907 16.1846C349.437 16.8532 348.703 17.1875 347.704 17.1875C346.718 17.1875 345.988 16.8617 345.514 16.21C345.04 15.554 344.795 14.5765 344.778 13.2773V11.7095C344.778 10.3511 345.013 9.3418 345.482 8.68164C345.952 8.02148 346.688 7.69141 347.691 7.69141C348.686 7.69141 349.418 8.01091 349.888 8.6499C350.357 9.28467 350.599 10.2664 350.611 11.5952V13.1187ZM349.437 11.5127C349.437 10.5182 349.297 9.7946 349.018 9.3418C348.739 8.88477 348.297 8.65625 347.691 8.65625C347.09 8.65625 346.653 8.88265 346.377 9.33545C346.102 9.78825 345.961 10.4844 345.952 11.4238V13.3027C345.952 14.3014 346.096 15.0399 346.384 15.5181C346.676 15.992 347.116 16.229 347.704 16.229C348.284 16.229 348.713 16.0047 348.993 15.5562C349.276 15.1076 349.424 14.4009 349.437 13.436V11.5127Z" fill="white"/>
    </g>
  </g>
  <defs>
    <linearGradient id="paint0_linear_6_3" x1="180" y1="0" x2="180" y2="800" gradientUnits="userSpaceOnUse">
      <stop stop-color="#E3E7EB"/>
      <stop offset="1" stop-color="#B5B9C0"/>
    </linearGradient>
    <clipPath id="clip0_6_3">
      <rect width="360" height="800" fill="white"/>
    </clipPath>
  </defs>
</svg>