<svg width="329" height="327" viewBox="0 0 329 327" fill="none" xmlns="http://www.w3.org/2000/svg">
<path d="M31.492 10.584H32.944V42H32.064V11.684H31.976L18.644 42H17.676L4.344 11.684H4.256V42H3.376V10.584H4.828L18.116 40.856H18.204L31.492 10.584ZM36.74 26.292C36.74 24.0627 37.048 21.9507 37.664 19.956C38.3094 17.9613 39.2334 16.216 40.436 14.72C41.668 13.224 43.1787 12.036 44.968 11.156C46.7867 10.276 48.8694 9.836 51.216 9.836C53.5627 9.836 55.6307 10.276 57.42 11.156C59.2387 12.036 60.7494 13.224 61.952 14.72C63.184 16.216 64.108 17.9613 64.724 19.956C65.3694 21.9507 65.692 24.0627 65.692 26.292C65.692 28.5213 65.3694 30.6333 64.724 32.628C64.108 34.6227 63.184 36.368 61.952 37.864C60.7494 39.36 59.2387 40.548 57.42 41.428C55.6307 42.2787 53.5627 42.704 51.216 42.704C48.8694 42.704 46.7867 42.2787 44.968 41.428C43.1787 40.548 41.668 39.36 40.436 37.864C39.2334 36.368 38.3094 34.6227 37.664 32.628C37.048 30.6333 36.74 28.5213 36.74 26.292ZM37.62 26.292C37.6494 28.5507 37.972 30.6333 38.588 32.54C39.2334 34.4467 40.128 36.0893 41.272 37.468C42.4454 38.8467 43.868 39.932 45.54 40.724C47.212 41.4867 49.104 41.868 51.216 41.868C53.328 41.868 55.22 41.4867 56.892 40.724C58.564 39.932 59.972 38.8467 61.116 37.468C62.2894 36.0893 63.184 34.4467 63.8 32.54C64.4454 30.6333 64.7827 28.5507 64.812 26.292C64.7827 24.0333 64.4454 21.9507 63.8 20.044C63.184 18.1373 62.2894 16.4947 61.116 15.116C59.972 13.7373 58.564 12.6667 56.892 11.904C55.22 11.112 53.328 10.716 51.216 10.716C49.104 10.716 47.212 11.112 45.54 11.904C43.868 12.6667 42.4454 13.7373 41.272 15.116C40.128 16.4947 39.2334 18.1373 38.588 20.044C37.972 21.9507 37.6494 24.0333 37.62 26.292ZM66.339 11.464V10.584H89.791V11.464H78.483V42H77.603V11.464H66.339ZM91.419 10.584H92.299V42H91.419V10.584ZM118.256 10.584H119.136L107.168 42H106.2L93.9239 10.584H94.7599L106.64 40.856H106.728L118.256 10.584ZM120.605 31.66L116.425 42H115.457L128.173 10.584H129.317L141.725 42H140.757L136.621 31.66H120.605ZM136.269 30.78L128.789 11.464H128.701L120.957 30.78H136.269ZM137.28 11.464V10.584H160.732V11.464H149.424V42H148.544V11.464H137.28ZM162.36 10.584H163.24V42H162.36V10.584ZM167.021 26.292C167.021 24.0627 167.329 21.9507 167.945 19.956C168.591 17.9613 169.515 16.216 170.717 14.72C171.949 13.224 173.46 12.036 175.249 11.156C177.068 10.276 179.151 9.836 181.497 9.836C183.844 9.836 185.912 10.276 187.701 11.156C189.52 12.036 191.031 13.224 192.233 14.72C193.465 16.216 194.389 17.9613 195.005 19.956C195.651 21.9507 195.973 24.0627 195.973 26.292C195.973 28.5213 195.651 30.6333 195.005 32.628C194.389 34.6227 193.465 36.368 192.233 37.864C191.031 39.36 189.52 40.548 187.701 41.428C185.912 42.2787 183.844 42.704 181.497 42.704C179.151 42.704 177.068 42.2787 175.249 41.428C173.46 40.548 171.949 39.36 170.717 37.864C169.515 36.368 168.591 34.6227 167.945 32.628C167.329 30.6333 167.021 28.5213 167.021 26.292ZM167.901 26.292C167.931 28.5507 168.253 30.6333 168.869 32.54C169.515 34.4467 170.409 36.0893 171.553 37.468C172.727 38.8467 174.149 39.932 175.821 40.724C177.493 41.4867 179.385 41.868 181.497 41.868C183.609 41.868 185.501 41.4867 187.173 40.724C188.845 39.932 190.253 38.8467 191.397 37.468C192.571 36.0893 193.465 34.4467 194.081 32.54C194.727 30.6333 195.064 28.5507 195.093 26.292C195.064 24.0333 194.727 21.9507 194.081 20.044C193.465 18.1373 192.571 16.4947 191.397 15.116C190.253 13.7373 188.845 12.6667 187.173 11.904C185.501 11.112 183.609 10.716 181.497 10.716C179.385 10.716 177.493 11.112 175.821 11.904C174.149 12.6667 172.727 13.7373 171.553 15.116C170.409 16.4947 169.515 18.1373 168.869 20.044C168.253 21.9507 167.931 24.0333 167.901 26.292ZM199.7 10.584H201.02L222.492 40.9H222.58V10.584H223.46V42H222.14L200.668 11.684H200.58V42H199.7V10.584Z" fill="white"/>
<path d="M264.216 10.576H266.216V22H264.216V10.576ZM269.981 18.192C269.981 18.6293 270.056 19.0027 270.205 19.312C270.354 19.6213 270.562 19.8773 270.829 20.08C271.096 20.272 271.4 20.416 271.741 20.512C272.093 20.5973 272.472 20.64 272.877 20.64C273.314 20.64 273.688 20.592 273.997 20.496C274.306 20.3893 274.557 20.256 274.749 20.096C274.941 19.936 275.08 19.7547 275.165 19.552C275.25 19.3387 275.293 19.1253 275.293 18.912C275.293 18.4747 275.192 18.1547 274.989 17.952C274.797 17.7387 274.584 17.5893 274.349 17.504C273.944 17.3547 273.469 17.216 272.925 17.088C272.392 16.9493 271.73 16.7733 270.941 16.56C270.45 16.432 270.04 16.2667 269.709 16.064C269.389 15.8507 269.133 15.616 268.941 15.36C268.749 15.104 268.61 14.832 268.525 14.544C268.45 14.256 268.413 13.9627 268.413 13.664C268.413 13.088 268.53 12.592 268.765 12.176C269.01 11.7493 269.33 11.3973 269.725 11.12C270.12 10.8427 270.568 10.64 271.069 10.512C271.57 10.3733 272.077 10.304 272.589 10.304C273.186 10.304 273.746 10.384 274.269 10.544C274.802 10.6933 275.266 10.9227 275.661 11.232C276.066 11.5413 276.386 11.9253 276.621 12.384C276.856 12.832 276.973 13.3547 276.973 13.952H274.973C274.92 13.216 274.669 12.6987 274.221 12.4C273.773 12.0907 273.202 11.936 272.509 11.936C272.274 11.936 272.034 11.9627 271.789 12.016C271.544 12.0587 271.32 12.1387 271.117 12.256C270.914 12.3627 270.744 12.512 270.605 12.704C270.477 12.896 270.413 13.136 270.413 13.424C270.413 13.8293 270.536 14.1493 270.781 14.384C271.037 14.608 271.368 14.7787 271.773 14.896C271.816 14.9067 271.981 14.9547 272.269 15.04C272.568 15.1147 272.898 15.2 273.261 15.296C273.624 15.392 273.976 15.488 274.317 15.584C274.669 15.6693 274.92 15.7333 275.069 15.776C275.442 15.8933 275.768 16.0533 276.045 16.256C276.322 16.4587 276.552 16.6933 276.733 16.96C276.925 17.216 277.064 17.4933 277.149 17.792C277.245 18.0907 277.293 18.3893 277.293 18.688C277.293 19.328 277.16 19.8773 276.893 20.336C276.637 20.784 276.296 21.152 275.869 21.44C275.442 21.728 274.957 21.936 274.413 22.064C273.869 22.2027 273.314 22.272 272.749 22.272C272.098 22.272 271.485 22.192 270.909 22.032C270.333 21.872 269.832 21.6267 269.405 21.296C268.978 20.9653 268.637 20.544 268.381 20.032C268.125 19.5093 267.992 18.896 267.981 18.192H269.981ZM282.377 10.576H284.409L286.473 19.312H286.505L288.809 10.576H290.857L293.097 19.312H293.129L295.257 10.576H297.289L294.137 22H292.105L289.817 13.264H289.785L287.449 22H285.385L282.377 10.576ZM298.559 10.576H300.559V15.12H305.759V10.576H307.759V22H305.759V16.848H300.559V22H298.559V10.576ZM313.21 10.576H315.338L319.738 22H317.594L316.522 18.976H311.962L310.89 22H308.825L313.21 10.576ZM312.506 17.456H315.994L314.282 12.544H314.234L312.506 17.456ZM318.269 10.576H327.517V12.304H323.885V22H321.885V12.304H318.269V10.576Z" fill="white"/>
<path d="M264.216 30.576H266.216V42H264.216V30.576ZM269.981 38.192C269.981 38.6293 270.056 39.0027 270.205 39.312C270.354 39.6213 270.562 39.8773 270.829 40.08C271.096 40.272 271.4 40.416 271.741 40.512C272.093 40.5973 272.472 40.64 272.877 40.64C273.314 40.64 273.688 40.592 273.997 40.496C274.306 40.3893 274.557 40.256 274.749 40.096C274.941 39.936 275.08 39.7547 275.165 39.552C275.25 39.3387 275.293 39.1253 275.293 38.912C275.293 38.4747 275.192 38.1547 274.989 37.952C274.797 37.7387 274.584 37.5893 274.349 37.504C273.944 37.3547 273.469 37.216 272.925 37.088C272.392 36.9493 271.73 36.7733 270.941 36.56C270.45 36.432 270.04 36.2667 269.709 36.064C269.389 35.8507 269.133 35.616 268.941 35.36C268.749 35.104 268.61 34.832 268.525 34.544C268.45 34.256 268.413 33.9627 268.413 33.664C268.413 33.088 268.53 32.592 268.765 32.176C269.01 31.7493 269.33 31.3973 269.725 31.12C270.12 30.8427 270.568 30.64 271.069 30.512C271.57 30.3733 272.077 30.304 272.589 30.304C273.186 30.304 273.746 30.384 274.269 30.544C274.802 30.6933 275.266 30.9227 275.661 31.232C276.066 31.5413 276.386 31.9253 276.621 32.384C276.856 32.832 276.973 33.3547 276.973 33.952H274.973C274.92 33.216 274.669 32.6987 274.221 32.4C273.773 32.0907 273.202 31.936 272.509 31.936C272.274 31.936 272.034 31.9627 271.789 32.016C271.544 32.0587 271.32 32.1387 271.117 32.256C270.914 32.3627 270.744 32.512 270.605 32.704C270.477 32.896 270.413 33.136 270.413 33.424C270.413 33.8293 270.536 34.1493 270.781 34.384C271.037 34.608 271.368 34.7787 271.773 34.896C271.816 34.9067 271.981 34.9547 272.269 35.04C272.568 35.1147 272.898 35.2 273.261 35.296C273.624 35.392 273.976 35.488 274.317 35.584C274.669 35.6693 274.92 35.7333 275.069 35.776C275.442 35.8933 275.768 36.0533 276.045 36.256C276.322 36.4587 276.552 36.6933 276.733 36.96C276.925 37.216 277.064 37.4933 277.149 37.792C277.245 38.0907 277.293 38.3893 277.293 38.688C277.293 39.328 277.16 39.8773 276.893 40.336C276.637 40.784 276.296 41.152 275.869 41.44C275.442 41.728 274.957 41.936 274.413 42.064C273.869 42.2027 273.314 42.272 272.749 42.272C272.098 42.272 271.485 42.192 270.909 42.032C270.333 41.872 269.832 41.6267 269.405 41.296C268.978 40.9653 268.637 40.544 268.381 40.032C268.125 39.5093 267.992 38.896 267.981 38.192H269.981ZM282.377 30.576H284.409L286.473 39.312H286.505L288.809 30.576H290.857L293.097 39.312H293.129L295.257 30.576H297.289L294.137 42H292.105L289.817 33.264H289.785L287.449 42H285.385L282.377 30.576ZM298.559 30.576H300.559V35.12H305.759V30.576H307.759V42H305.759V36.848H300.559V42H298.559V30.576ZM313.21 30.576H315.338L319.738 42H317.594L316.522 38.976H311.962L310.89 42H308.825L313.21 30.576ZM312.506 37.456H315.994L314.282 32.544H314.234L312.506 37.456ZM318.269 30.576H327.517V32.304H323.885V42H321.885V32.304H318.269V30.576Z" fill="white" fill-opacity="0.15"/>
<path d="M8.34 65.96C8.34 65.6933 8.30667 65.42 8.24 65.14C8.18667 64.86 8.09333 64.6067 7.96 64.38C7.82667 64.14 7.65333 63.9467 7.44 63.8C7.24 63.64 6.99333 63.56 6.7 63.56C6.00667 63.56 5.50667 63.9467 5.2 64.72C4.89333 65.4933 4.74 66.7733 4.74 68.56C4.74 69.4133 4.76667 70.1867 4.82 70.88C4.87333 71.5733 4.96667 72.1667 5.1 72.66C5.24667 73.14 5.44667 73.5133 5.7 73.78C5.96667 74.0333 6.30667 74.16 6.72 74.16C6.89333 74.16 7.08 74.1133 7.28 74.02C7.49333 73.9267 7.68667 73.7867 7.86 73.6C8.04667 73.4133 8.2 73.18 8.32 72.9C8.44 72.6067 8.5 72.2667 8.5 71.88V70.42H6.6V68.3H11.26V76H9.14V74.68H9.1C8.75333 75.24 8.33333 75.64 7.84 75.88C7.36 76.1067 6.78 76.22 6.1 76.22C5.22 76.22 4.5 76.0667 3.94 75.76C3.39333 75.4533 2.96 74.98 2.64 74.34C2.33333 73.7 2.12667 72.9133 2.02 71.98C1.91333 71.0333 1.86 69.94 1.86 68.7C1.86 67.5 1.93333 66.4467 2.08 65.54C2.24 64.6333 2.50667 63.88 2.88 63.28C3.25333 62.6667 3.74667 62.2067 4.36 61.9C4.97333 61.5933 5.74 61.44 6.66 61.44C8.23333 61.44 9.36667 61.8333 10.06 62.62C10.7533 63.3933 11.1 64.5067 11.1 65.96H8.34ZM21.0933 61.72V64.08H15.9933V67.44H20.7933V69.8H15.9933V73.64H21.2933V76H13.1133V61.72H21.0933ZM31.1022 61.72V64.08H27.9822V76H25.1022V64.08H21.9822V61.72H31.1022ZM34.6716 71.54V71.96C34.6716 72.2933 34.6982 72.6 34.7516 72.88C34.8049 73.1467 34.9049 73.3733 35.0516 73.56C35.1982 73.7467 35.3916 73.8933 35.6316 74C35.8849 74.1067 36.1982 74.16 36.5716 74.16C37.0116 74.16 37.4049 74.02 37.7516 73.74C38.1116 73.4467 38.2916 73 38.2916 72.4C38.2916 72.08 38.2449 71.8067 38.1516 71.58C38.0716 71.34 37.9316 71.1267 37.7316 70.94C37.5316 70.7533 37.2649 70.5867 36.9316 70.44C36.6116 70.28 36.2116 70.12 35.7316 69.96C35.0916 69.7467 34.5382 69.5133 34.0716 69.26C33.6049 69.0067 33.2116 68.7133 32.8916 68.38C32.5849 68.0333 32.3582 67.64 32.2116 67.2C32.0649 66.7467 31.9916 66.2267 31.9916 65.64C31.9916 64.2267 32.3849 63.1733 33.1716 62.48C33.9582 61.7867 35.0382 61.44 36.4116 61.44C37.0516 61.44 37.6382 61.5133 38.1716 61.66C38.7182 61.7933 39.1849 62.02 39.5716 62.34C39.9716 62.6467 40.2782 63.0467 40.4916 63.54C40.7182 64.02 40.8316 64.6 40.8316 65.28V65.68H38.0716C38.0716 65 37.9516 64.48 37.7116 64.12C37.4716 63.7467 37.0716 63.56 36.5116 63.56C36.1916 63.56 35.9249 63.6067 35.7116 63.7C35.4982 63.7933 35.3249 63.92 35.1916 64.08C35.0716 64.2267 34.9849 64.4 34.9316 64.6C34.8916 64.8 34.8716 65.0067 34.8716 65.22C34.8716 65.66 34.9649 66.0333 35.1516 66.34C35.3382 66.6333 35.7382 66.9067 36.3516 67.16L38.5716 68.12C39.1182 68.36 39.5649 68.6133 39.9116 68.88C40.2582 69.1333 40.5316 69.4133 40.7316 69.72C40.9449 70.0133 41.0916 70.34 41.1716 70.7C41.2516 71.06 41.2916 71.46 41.2916 71.9C41.2916 73.4067 40.8516 74.5067 39.9716 75.2C39.1049 75.88 37.8916 76.22 36.3316 76.22C34.7049 76.22 33.5382 75.8667 32.8316 75.16C32.1382 74.4533 31.7916 73.44 31.7916 72.12V71.54H34.6716Z" fill="white"/>
<path d="M40.46 95.16V101H38.56V95.16L33.04 86.72H35.3L39.58 93.52L43.76 86.72H45.92L40.46 95.16ZM48.6288 93.86C48.6288 94.58 48.7221 95.2933 48.9087 96C49.0954 96.6933 49.3888 97.32 49.7888 97.88C50.1888 98.44 50.7021 98.8933 51.3288 99.24C51.9554 99.5733 52.7021 99.74 53.5688 99.74C54.4354 99.74 55.1821 99.5733 55.8088 99.24C56.4354 98.8933 56.9488 98.44 57.3488 97.88C57.7488 97.32 58.0421 96.6933 58.2288 96C58.4154 95.2933 58.5088 94.58 58.5088 93.86C58.5088 93.14 58.4154 92.4333 58.2288 91.74C58.0421 91.0333 57.7488 90.4 57.3488 89.84C56.9488 89.28 56.4354 88.8333 55.8088 88.5C55.1821 88.1533 54.4354 87.98 53.5688 87.98C52.7021 87.98 51.9554 88.1533 51.3288 88.5C50.7021 88.8333 50.1888 89.28 49.7888 89.84C49.3888 90.4 49.0954 91.0333 48.9087 91.74C48.7221 92.4333 48.6288 93.14 48.6288 93.86ZM46.7288 93.86C46.7288 92.8867 46.8688 91.9533 47.1488 91.06C47.4421 90.1533 47.8754 89.3533 48.4488 88.66C49.0221 87.9667 49.7354 87.4133 50.5888 87C51.4421 86.5867 52.4354 86.38 53.5688 86.38C54.7021 86.38 55.6954 86.5867 56.5488 87C57.4021 87.4133 58.1154 87.9667 58.6888 88.66C59.2621 89.3533 59.6888 90.1533 59.9688 91.06C60.2621 91.9533 60.4088 92.8867 60.4088 93.86C60.4088 94.8333 60.2621 95.7733 59.9688 96.68C59.6888 97.5733 59.2621 98.3667 58.6888 99.06C58.1154 99.7533 57.4021 100.307 56.5488 100.72C55.6954 101.12 54.7021 101.32 53.5688 101.32C52.4354 101.32 51.4421 101.12 50.5888 100.72C49.7354 100.307 49.0221 99.7533 48.4488 99.06C47.8754 98.3667 47.4421 97.5733 47.1488 96.68C46.8688 95.7733 46.7288 94.8333 46.7288 93.86ZM74.1241 95.84C74.1241 97.6667 73.6374 99.04 72.6641 99.96C71.6907 100.867 70.3041 101.32 68.5041 101.32C66.6641 101.32 65.2241 100.887 64.1841 100.02C63.1574 99.14 62.6441 97.7467 62.6441 95.84V86.72H64.5441V95.84C64.5441 97.12 64.8841 98.0933 65.5641 98.76C66.2441 99.4133 67.2241 99.74 68.5041 99.74C69.7174 99.74 70.6374 99.4133 71.2641 98.76C71.9041 98.0933 72.2241 97.12 72.2241 95.84V86.72H74.1241V95.84Z" fill="white"/>
<path d="M219.312 98.864V99.536C219.312 100.069 219.355 100.56 219.44 101.008C219.525 101.435 219.685 101.797 219.92 102.096C220.155 102.395 220.464 102.629 220.848 102.8C221.253 102.971 221.755 103.056 222.352 103.056C223.056 103.056 223.685 102.832 224.24 102.384C224.816 101.915 225.104 101.2 225.104 100.24C225.104 99.728 225.029 99.2907 224.88 98.928C224.752 98.544 224.528 98.2027 224.208 97.904C223.888 97.6053 223.461 97.3387 222.928 97.104C222.416 96.848 221.776 96.592 221.008 96.336C219.984 95.9947 219.099 95.6213 218.352 95.216C217.605 94.8107 216.976 94.3413 216.464 93.808C215.973 93.2533 215.611 92.624 215.376 91.92C215.141 91.1947 215.024 90.3627 215.024 89.424C215.024 87.1627 215.653 85.4773 216.912 84.368C218.171 83.2587 219.899 82.704 222.096 82.704C223.12 82.704 224.059 82.8213 224.912 83.056C225.787 83.2693 226.533 83.632 227.152 84.144C227.792 84.6347 228.283 85.2747 228.624 86.064C228.987 86.832 229.168 87.76 229.168 88.848V89.488H224.752C224.752 88.4 224.56 87.568 224.176 86.992C223.792 86.3947 223.152 86.096 222.256 86.096C221.744 86.096 221.317 86.1707 220.976 86.32C220.635 86.4693 220.357 86.672 220.144 86.928C219.952 87.1627 219.813 87.44 219.728 87.76C219.664 88.08 219.632 88.4107 219.632 88.752C219.632 89.456 219.781 90.0533 220.08 90.544C220.379 91.0133 221.019 91.4507 222 91.856L225.552 93.392C226.427 93.776 227.141 94.1813 227.696 94.608C228.251 95.0133 228.688 95.4613 229.008 95.952C229.349 96.4213 229.584 96.944 229.712 97.52C229.84 98.096 229.904 98.736 229.904 99.44C229.904 101.851 229.2 103.611 227.792 104.72C226.405 105.808 224.464 106.352 221.968 106.352C219.365 106.352 217.499 105.787 216.368 104.656C215.259 103.525 214.704 101.904 214.704 99.792V98.864H219.312ZM245.57 83.152V86.928H240.578V106H235.97V86.928H230.978V83.152H245.57ZM255.355 97.392L253.147 87.12H253.083L250.875 97.392H255.355ZM255.963 83.152L262.011 106H257.211L256.155 101.168H250.075L249.019 106H244.219L250.267 83.152H255.963ZM263.6 83.152H272.112C274.032 83.152 275.525 83.6427 276.592 84.624C277.659 85.584 278.192 87.056 278.192 89.04C278.192 90.576 277.883 91.8347 277.264 92.816C276.645 93.776 275.685 94.3947 274.384 94.672V94.736C275.536 94.9067 276.379 95.28 276.912 95.856C277.445 96.432 277.776 97.36 277.904 98.64C277.947 99.0667 277.979 99.536 278 100.048C278.021 100.539 278.043 101.093 278.064 101.712C278.107 102.928 278.171 103.856 278.256 104.496C278.384 105.136 278.661 105.573 279.088 105.808V106H274.096C273.861 105.68 273.712 105.317 273.648 104.912C273.584 104.485 273.541 104.048 273.52 103.6L273.392 99.216C273.349 98.32 273.125 97.616 272.72 97.104C272.315 96.592 271.632 96.336 270.672 96.336H268.208V106H263.6V83.152ZM268.208 93.136H270.128C271.237 93.136 272.091 92.88 272.688 92.368C273.285 91.8347 273.584 90.9493 273.584 89.712C273.584 87.6 272.517 86.544 270.384 86.544H268.208V93.136ZM294.195 83.152V86.928H289.203V106H284.595V86.928H279.603V83.152H294.195ZM308.962 83.152V86.928H300.802V92.304H308.482V96.08H300.802V102.224H309.282V106H296.194V83.152H308.962ZM316.432 102.608H318.48C319.291 102.608 319.941 102.469 320.432 102.192C320.923 101.915 321.307 101.456 321.584 100.816C321.883 100.176 322.075 99.3333 322.16 98.288C322.267 97.2427 322.32 95.9413 322.32 94.384C322.32 93.0827 322.277 91.9413 322.192 90.96C322.107 89.9787 321.925 89.168 321.648 88.528C321.392 87.8667 320.997 87.376 320.464 87.056C319.952 86.7147 319.259 86.544 318.384 86.544H316.432V102.608ZM311.824 83.152H319.376C320.976 83.152 322.267 83.4187 323.248 83.952C324.229 84.464 324.987 85.2107 325.52 86.192C326.075 87.152 326.448 88.3147 326.64 89.68C326.832 91.0453 326.928 92.5707 326.928 94.256C326.928 96.2613 326.8 98.0107 326.544 99.504C326.309 100.976 325.893 102.192 325.296 103.152C324.699 104.112 323.899 104.827 322.896 105.296C321.893 105.765 320.624 106 319.088 106H311.824V83.152Z" fill="white"/>
<path d="M4.504 139.728H10.504V153.36H26.104V139.728H32.104V174H26.104V158.544H10.504V174H4.504V139.728ZM48.4566 139.728H54.8406L68.0406 174H61.6086L58.3926 164.928H44.7126L41.4966 174H35.3046L48.4566 139.728ZM46.3446 160.368H56.8086L51.6726 145.632H51.5286L46.3446 160.368ZM77.3043 154.08H87.0963C88.5363 154.08 89.7363 153.68 90.6963 152.88C91.6563 152.048 92.1363 150.864 92.1363 149.328C92.1363 147.6 91.7043 146.384 90.8403 145.68C89.9763 144.976 88.7283 144.624 87.0963 144.624H77.3043V154.08ZM71.3043 139.728H87.9603C91.0323 139.728 93.4963 140.432 95.3523 141.84C97.2083 143.248 98.1363 145.376 98.1363 148.224C98.1363 149.952 97.7043 151.44 96.8403 152.688C96.0083 153.904 94.8083 154.848 93.2403 155.52V155.616C95.3523 156.064 96.9523 157.072 98.0403 158.64C99.1283 160.176 99.6723 162.112 99.6723 164.448C99.6723 165.792 99.4323 167.056 98.9523 168.24C98.4723 169.392 97.7203 170.4 96.6963 171.264C95.6723 172.096 94.3603 172.768 92.7603 173.28C91.1603 173.76 89.2563 174 87.0483 174H71.3043V139.728ZM77.3043 169.104H87.9123C89.7363 169.104 91.1443 168.64 92.1363 167.712C93.1603 166.752 93.6723 165.408 93.6723 163.68C93.6723 161.984 93.1603 160.688 92.1363 159.792C91.1443 158.864 89.7363 158.4 87.9123 158.4H77.3043V169.104ZM105.101 139.728H111.101V174H105.101V139.728ZM115.197 139.728H142.941V144.912H132.045V174H126.045V144.912H115.197V139.728Z" fill="white"/>
<path d="M150.312 161.576H151.832V173H150.312V161.576ZM160.997 164.92C160.911 164.099 160.613 163.507 160.101 163.144C159.599 162.771 158.954 162.584 158.165 162.584C157.845 162.584 157.53 162.616 157.221 162.68C156.911 162.744 156.634 162.851 156.389 163C156.154 163.149 155.962 163.352 155.813 163.608C155.674 163.853 155.605 164.163 155.605 164.536C155.605 164.888 155.706 165.176 155.909 165.4C156.122 165.613 156.399 165.789 156.741 165.928C157.093 166.067 157.487 166.184 157.925 166.28C158.362 166.365 158.805 166.461 159.253 166.568C159.711 166.675 160.159 166.803 160.597 166.952C161.034 167.091 161.423 167.283 161.765 167.528C162.117 167.773 162.394 168.083 162.597 168.456C162.81 168.829 162.917 169.299 162.917 169.864C162.917 170.472 162.778 170.995 162.501 171.432C162.234 171.859 161.887 172.211 161.461 172.488C161.034 172.755 160.554 172.947 160.021 173.064C159.498 173.192 158.975 173.256 158.453 173.256C157.813 173.256 157.205 173.176 156.629 173.016C156.063 172.856 155.562 172.616 155.125 172.296C154.698 171.965 154.357 171.549 154.101 171.048C153.855 170.536 153.733 169.933 153.733 169.24H155.173C155.173 169.72 155.263 170.136 155.445 170.488C155.637 170.829 155.882 171.112 156.181 171.336C156.49 171.56 156.847 171.725 157.253 171.832C157.658 171.939 158.074 171.992 158.501 171.992C158.842 171.992 159.183 171.96 159.525 171.896C159.877 171.832 160.191 171.725 160.469 171.576C160.746 171.416 160.97 171.203 161.141 170.936C161.311 170.669 161.397 170.328 161.397 169.912C161.397 169.517 161.29 169.197 161.077 168.952C160.874 168.707 160.597 168.509 160.245 168.36C159.903 168.2 159.514 168.072 159.077 167.976C158.639 167.88 158.191 167.784 157.733 167.688C157.285 167.581 156.842 167.464 156.405 167.336C155.967 167.197 155.573 167.021 155.221 166.808C154.879 166.584 154.602 166.301 154.389 165.96C154.186 165.608 154.085 165.171 154.085 164.648C154.085 164.072 154.202 163.576 154.437 163.16C154.671 162.733 154.981 162.387 155.365 162.12C155.759 161.843 156.202 161.64 156.693 161.512C157.194 161.373 157.706 161.304 158.229 161.304C158.815 161.304 159.359 161.373 159.861 161.512C160.362 161.651 160.799 161.869 161.173 162.168C161.557 162.467 161.855 162.845 162.069 163.304C162.293 163.752 162.415 164.291 162.437 164.92H160.997Z" fill="white"/>
<path d="M0.88 190.72H1.78L5.5 204.06H5.54L9.32 190.72H10.42L14.26 204.06H14.3L17.96 190.72H18.9L14.8 205H13.8L9.88 191.48H9.84L5.98 205H5L0.88 190.72ZM20.0334 190.72H20.9134V197.2H30.0334V190.72H30.9134V205H30.0334V197.96H20.9134V205H20.0334V190.72ZM37.6719 190.72H38.6319L44.2719 205H43.3319L41.5319 200.42H34.6919L32.8719 205H31.9319L37.6719 190.72ZM41.2519 199.66L38.1919 191.58H38.1519L34.9719 199.66H41.2519ZM42.1848 191.48V190.72H53.1248V191.48H48.0848V205H47.2048V191.48H42.1848ZM59.6623 190.72H60.5423V198.94L69.5223 190.72H70.6623L64.1423 196.66L71.0623 205H69.9623L63.5023 197.26L60.5423 199.96V205H59.6623V190.72ZM71.928 190.72H81.528V191.48H72.808V197.2H81.008V197.96H72.808V204.24H81.628V205H71.928V190.72ZM83.1194 190.72H92.7194V191.48H83.9994V197.2H92.1994V197.96H83.9994V204.24H92.8194V205H83.1194V190.72ZM94.3108 190.72H100.391C100.791 190.72 101.231 190.767 101.711 190.86C102.204 190.953 102.657 191.147 103.071 191.44C103.497 191.72 103.851 192.127 104.131 192.66C104.411 193.18 104.551 193.867 104.551 194.72C104.551 195.973 104.164 196.94 103.391 197.62C102.617 198.3 101.511 198.64 100.071 198.64H95.1908V205H94.3108V190.72ZM95.1908 197.88H100.211C100.851 197.88 101.391 197.787 101.831 197.6C102.284 197.4 102.644 197.147 102.911 196.84C103.177 196.533 103.371 196.193 103.491 195.82C103.611 195.447 103.671 195.073 103.671 194.7C103.671 194.433 103.631 194.12 103.551 193.76C103.471 193.387 103.311 193.033 103.071 192.7C102.831 192.353 102.491 192.067 102.051 191.84C101.624 191.6 101.051 191.48 100.331 191.48H95.1908V197.88ZM115.447 194.8C115.421 194.187 115.287 193.653 115.047 193.2C114.821 192.747 114.507 192.367 114.107 192.06C113.707 191.753 113.227 191.527 112.667 191.38C112.121 191.22 111.521 191.14 110.867 191.14C110.467 191.14 110.034 191.187 109.567 191.28C109.114 191.373 108.687 191.54 108.287 191.78C107.901 192.007 107.581 192.32 107.327 192.72C107.074 193.107 106.947 193.593 106.947 194.18C106.947 194.753 107.087 195.22 107.367 195.58C107.647 195.94 108.014 196.233 108.467 196.46C108.921 196.673 109.441 196.847 110.027 196.98C110.614 197.113 111.207 197.24 111.807 197.36C112.421 197.48 113.014 197.627 113.587 197.8C114.174 197.96 114.694 198.187 115.147 198.48C115.614 198.76 115.987 199.133 116.267 199.6C116.547 200.053 116.687 200.627 116.687 201.32C116.687 202.067 116.527 202.693 116.207 203.2C115.887 203.707 115.481 204.12 114.987 204.44C114.507 204.76 113.967 204.987 113.367 205.12C112.781 205.267 112.214 205.34 111.667 205.34C110.827 205.34 110.041 205.247 109.307 205.06C108.574 204.887 107.934 204.6 107.387 204.2C106.841 203.787 106.407 203.26 106.087 202.62C105.781 201.98 105.634 201.2 105.647 200.28H106.527C106.487 201.067 106.601 201.733 106.867 202.28C107.134 202.813 107.501 203.253 107.967 203.6C108.447 203.947 109.007 204.2 109.647 204.36C110.287 204.507 110.961 204.58 111.667 204.58C112.094 204.58 112.547 204.527 113.027 204.42C113.521 204.313 113.967 204.133 114.367 203.88C114.781 203.627 115.121 203.293 115.387 202.88C115.667 202.467 115.807 201.947 115.807 201.32C115.807 200.72 115.667 200.233 115.387 199.86C115.107 199.473 114.734 199.167 114.267 198.94C113.814 198.7 113.294 198.513 112.707 198.38C112.134 198.233 111.541 198.1 110.927 197.98C110.327 197.86 109.734 197.72 109.147 197.56C108.561 197.4 108.041 197.187 107.587 196.92C107.134 196.64 106.767 196.287 106.487 195.86C106.207 195.42 106.067 194.86 106.067 194.18C106.067 193.5 106.207 192.92 106.487 192.44C106.781 191.947 107.154 191.553 107.607 191.26C108.074 190.953 108.594 190.733 109.167 190.6C109.741 190.453 110.307 190.38 110.867 190.38C111.614 190.38 112.307 190.467 112.947 190.64C113.601 190.8 114.167 191.06 114.647 191.42C115.141 191.767 115.534 192.22 115.827 192.78C116.121 193.34 116.287 194.013 116.327 194.8H115.447ZM128.111 199.44L122.871 190.72H126.391L129.731 196.36L133.051 190.72H136.551L131.251 199.52V205H128.111V199.44ZM140.271 197.92C140.271 198.52 140.338 199.107 140.471 199.68C140.618 200.24 140.844 200.747 141.151 201.2C141.458 201.653 141.858 202.02 142.351 202.3C142.844 202.567 143.444 202.7 144.151 202.7C144.858 202.7 145.458 202.567 145.951 202.3C146.444 202.02 146.844 201.653 147.151 201.2C147.458 200.747 147.678 200.24 147.811 199.68C147.958 199.107 148.031 198.52 148.031 197.92C148.031 197.293 147.958 196.687 147.811 196.1C147.678 195.513 147.458 194.993 147.151 194.54C146.844 194.073 146.444 193.707 145.951 193.44C145.458 193.16 144.858 193.02 144.151 193.02C143.444 193.02 142.844 193.16 142.351 193.44C141.858 193.707 141.458 194.073 141.151 194.54C140.844 194.993 140.618 195.513 140.471 196.1C140.338 196.687 140.271 197.293 140.271 197.92ZM137.131 197.92C137.131 196.853 137.291 195.867 137.611 194.96C137.931 194.04 138.391 193.24 138.991 192.56C139.591 191.88 140.324 191.347 141.191 190.96C142.071 190.573 143.058 190.38 144.151 190.38C145.258 190.38 146.244 190.573 147.111 190.96C147.978 191.347 148.711 191.88 149.311 192.56C149.911 193.24 150.371 194.04 150.691 194.96C151.011 195.867 151.171 196.853 151.171 197.92C151.171 198.96 151.011 199.933 150.691 200.84C150.371 201.733 149.911 202.513 149.311 203.18C148.711 203.847 147.978 204.373 147.111 204.76C146.244 205.133 145.258 205.32 144.151 205.32C143.058 205.32 142.071 205.133 141.191 204.76C140.324 204.373 139.591 203.847 138.991 203.18C138.391 202.513 137.931 201.733 137.611 200.84C137.291 199.933 137.131 198.96 137.131 197.92ZM165.438 199.6C165.438 201.533 164.898 202.973 163.818 203.92C162.738 204.853 161.244 205.32 159.338 205.32C157.404 205.32 155.904 204.853 154.838 203.92C153.784 202.987 153.257 201.547 153.257 199.6V190.72H156.398V199.6C156.398 199.987 156.431 200.367 156.498 200.74C156.564 201.113 156.704 201.447 156.918 201.74C157.131 202.02 157.424 202.253 157.798 202.44C158.184 202.613 158.698 202.7 159.338 202.7C160.458 202.7 161.231 202.453 161.658 201.96C162.084 201.453 162.298 200.667 162.298 199.6V190.72H165.438V199.6Z" fill="white"/>
<path d="M164.128 276.904V275.624H183.136V297H181.856V285.672H181.728C180.491 289.555 178.272 292.584 175.072 294.76C171.872 296.936 168.011 298.024 163.488 298.024C159.989 298.024 156.896 297.405 154.208 296.168C151.52 294.888 149.28 293.181 147.488 291.048C145.696 288.872 144.331 286.333 143.392 283.432C142.496 280.531 142.048 277.437 142.048 274.152C142.048 270.824 142.539 267.709 143.52 264.808C144.501 261.864 145.909 259.325 147.744 257.192C149.579 255.016 151.819 253.309 154.464 252.072C157.109 250.835 160.117 250.216 163.488 250.216C166.048 250.216 168.395 250.579 170.528 251.304C172.704 252.029 174.603 253.075 176.224 254.44C177.888 255.763 179.232 257.363 180.256 259.24C181.323 261.117 182.048 263.229 182.432 265.576H181.152C180.768 263.443 180.064 261.523 179.04 259.816C178.059 258.067 176.8 256.573 175.264 255.336C173.771 254.099 172.021 253.16 170.016 252.52C168.053 251.837 165.877 251.496 163.488 251.496C160.288 251.496 157.429 252.093 154.912 253.288C152.437 254.483 150.325 256.104 148.576 258.152C146.869 260.2 145.568 262.611 144.672 265.384C143.776 268.115 143.328 271.037 143.328 274.152C143.328 277.267 143.755 280.211 144.608 282.984C145.461 285.715 146.741 288.104 148.448 290.152C150.155 292.2 152.267 293.821 154.784 295.016C157.344 296.211 160.309 296.808 163.68 296.808C166.197 296.808 168.565 296.381 170.784 295.528C173.003 294.632 174.923 293.416 176.544 291.88C178.208 290.301 179.509 288.445 180.448 286.312C181.387 284.136 181.856 281.789 181.856 279.272V276.904H164.128ZM188.236 274.152C188.236 270.909 188.684 267.837 189.58 264.936C190.518 262.035 191.862 259.496 193.612 257.32C195.404 255.144 197.601 253.416 200.204 252.136C202.849 250.856 205.878 250.216 209.292 250.216C212.705 250.216 215.713 250.856 218.316 252.136C220.961 253.416 223.158 255.144 224.908 257.32C226.7 259.496 228.044 262.035 228.94 264.936C229.878 267.837 230.348 270.909 230.348 274.152C230.348 277.395 229.878 280.467 228.94 283.368C228.044 286.269 226.7 288.808 224.908 290.984C223.158 293.16 220.961 294.888 218.316 296.168C215.713 297.405 212.705 298.024 209.292 298.024C205.878 298.024 202.849 297.405 200.204 296.168C197.601 294.888 195.404 293.16 193.612 290.984C191.862 288.808 190.518 286.269 189.58 283.368C188.684 280.467 188.236 277.395 188.236 274.152ZM189.516 274.152C189.558 277.437 190.028 280.467 190.924 283.24C191.862 286.013 193.164 288.403 194.828 290.408C196.534 292.413 198.604 293.992 201.036 295.144C203.468 296.253 206.22 296.808 209.292 296.808C212.364 296.808 215.116 296.253 217.548 295.144C219.98 293.992 222.028 292.413 223.692 290.408C225.398 288.403 226.7 286.013 227.596 283.24C228.534 280.467 229.025 277.437 229.068 274.152C229.025 270.867 228.534 267.837 227.596 265.064C226.7 262.291 225.398 259.901 223.692 257.896C222.028 255.891 219.98 254.333 217.548 253.224C215.116 252.072 212.364 251.496 209.292 251.496C206.22 251.496 203.468 252.072 201.036 253.224C198.604 254.333 196.534 255.891 194.828 257.896C193.164 259.901 191.862 262.291 190.924 265.064C190.028 267.837 189.558 270.867 189.516 274.152ZM235.769 251.304H237.049V297H235.769V251.304ZM243.956 251.304H245.876L277.108 295.4H277.236V251.304H278.516V297H276.596L245.364 252.904H245.236V297H243.956V251.304ZM306.128 276.904V275.624H325.136V297H323.856V285.672H323.728C322.491 289.555 320.272 292.584 317.072 294.76C313.872 296.936 310.011 298.024 305.488 298.024C301.989 298.024 298.896 297.405 296.208 296.168C293.52 294.888 291.28 293.181 289.488 291.048C287.696 288.872 286.331 286.333 285.392 283.432C284.496 280.531 284.048 277.437 284.048 274.152C284.048 270.824 284.539 267.709 285.52 264.808C286.501 261.864 287.909 259.325 289.744 257.192C291.579 255.016 293.819 253.309 296.464 252.072C299.109 250.835 302.117 250.216 305.488 250.216C308.048 250.216 310.395 250.579 312.528 251.304C314.704 252.029 316.603 253.075 318.224 254.44C319.888 255.763 321.232 257.363 322.256 259.24C323.323 261.117 324.048 263.229 324.432 265.576H323.152C322.768 263.443 322.064 261.523 321.04 259.816C320.059 258.067 318.8 256.573 317.264 255.336C315.771 254.099 314.021 253.16 312.016 252.52C310.053 251.837 307.877 251.496 305.488 251.496C302.288 251.496 299.429 252.093 296.912 253.288C294.437 254.483 292.325 256.104 290.576 258.152C288.869 260.2 287.568 262.611 286.672 265.384C285.776 268.115 285.328 271.037 285.328 274.152C285.328 277.267 285.755 280.211 286.608 282.984C287.461 285.715 288.741 288.104 290.448 290.152C292.155 292.2 294.267 293.821 296.784 295.016C299.344 296.211 302.309 296.808 305.68 296.808C308.197 296.808 310.565 296.381 312.784 295.528C315.003 294.632 316.923 293.416 318.544 291.88C320.208 290.301 321.509 288.445 322.448 286.312C323.387 284.136 323.856 281.789 323.856 279.272V276.904H306.128Z" fill="white"/>
<path opacity="0.15" d="M164.128 291.904V290.624H183.136V312H181.856V300.672H181.728C180.491 304.555 178.272 307.584 175.072 309.76C171.872 311.936 168.011 313.024 163.488 313.024C159.989 313.024 156.896 312.405 154.208 311.168C151.52 309.888 149.28 308.181 147.488 306.048C145.696 303.872 144.331 301.333 143.392 298.432C142.496 295.531 142.048 292.437 142.048 289.152C142.048 285.824 142.539 282.709 143.52 279.808C144.501 276.864 145.909 274.325 147.744 272.192C149.579 270.016 151.819 268.309 154.464 267.072C157.109 265.835 160.117 265.216 163.488 265.216C166.048 265.216 168.395 265.579 170.528 266.304C172.704 267.029 174.603 268.075 176.224 269.44C177.888 270.763 179.232 272.363 180.256 274.24C181.323 276.117 182.048 278.229 182.432 280.576H181.152C180.768 278.443 180.064 276.523 179.04 274.816C178.059 273.067 176.8 271.573 175.264 270.336C173.771 269.099 172.021 268.16 170.016 267.52C168.053 266.837 165.877 266.496 163.488 266.496C160.288 266.496 157.429 267.093 154.912 268.288C152.437 269.483 150.325 271.104 148.576 273.152C146.869 275.2 145.568 277.611 144.672 280.384C143.776 283.115 143.328 286.037 143.328 289.152C143.328 292.267 143.755 295.211 144.608 297.984C145.461 300.715 146.741 303.104 148.448 305.152C150.155 307.2 152.267 308.821 154.784 310.016C157.344 311.211 160.309 311.808 163.68 311.808C166.197 311.808 168.565 311.381 170.784 310.528C173.003 309.632 174.923 308.416 176.544 306.88C178.208 305.301 179.509 303.445 180.448 301.312C181.387 299.136 181.856 296.789 181.856 294.272V291.904H164.128ZM188.236 289.152C188.236 285.909 188.684 282.837 189.58 279.936C190.518 277.035 191.862 274.496 193.612 272.32C195.404 270.144 197.601 268.416 200.204 267.136C202.849 265.856 205.878 265.216 209.292 265.216C212.705 265.216 215.713 265.856 218.316 267.136C220.961 268.416 223.158 270.144 224.908 272.32C226.7 274.496 228.044 277.035 228.94 279.936C229.878 282.837 230.348 285.909 230.348 289.152C230.348 292.395 229.878 295.467 228.94 298.368C228.044 301.269 226.7 303.808 224.908 305.984C223.158 308.16 220.961 309.888 218.316 311.168C215.713 312.405 212.705 313.024 209.292 313.024C205.878 313.024 202.849 312.405 200.204 311.168C197.601 309.888 195.404 308.16 193.612 305.984C191.862 303.808 190.518 301.269 189.58 298.368C188.684 295.467 188.236 292.395 188.236 289.152ZM189.516 289.152C189.558 292.437 190.028 295.467 190.924 298.24C191.862 301.013 193.164 303.403 194.828 305.408C196.534 307.413 198.604 308.992 201.036 310.144C203.468 311.253 206.22 311.808 209.292 311.808C212.364 311.808 215.116 311.253 217.548 310.144C219.98 308.992 222.028 307.413 223.692 305.408C225.398 303.403 226.7 301.013 227.596 298.24C228.534 295.467 229.025 292.437 229.068 289.152C229.025 285.867 228.534 282.837 227.596 280.064C226.7 277.291 225.398 274.901 223.692 272.896C222.028 270.891 219.98 269.333 217.548 268.224C215.116 267.072 212.364 266.496 209.292 266.496C206.22 266.496 203.468 267.072 201.036 268.224C198.604 269.333 196.534 270.891 194.828 272.896C193.164 274.901 191.862 277.291 190.924 280.064C190.028 282.837 189.558 285.867 189.516 289.152ZM235.769 266.304H237.049V312H235.769V266.304ZM243.956 266.304H245.876L277.108 310.4H277.236V266.304H278.516V312H276.596L245.364 267.904H245.236V312H243.956V266.304ZM306.128 291.904V290.624H325.136V312H323.856V300.672H323.728C322.491 304.555 320.272 307.584 317.072 309.76C313.872 311.936 310.011 313.024 305.488 313.024C301.989 313.024 298.896 312.405 296.208 311.168C293.52 309.888 291.28 308.181 289.488 306.048C287.696 303.872 286.331 301.333 285.392 298.432C284.496 295.531 284.048 292.437 284.048 289.152C284.048 285.824 284.539 282.709 285.52 279.808C286.501 276.864 287.909 274.325 289.744 272.192C291.579 270.016 293.819 268.309 296.464 267.072C299.109 265.835 302.117 265.216 305.488 265.216C308.048 265.216 310.395 265.579 312.528 266.304C314.704 267.029 316.603 268.075 318.224 269.44C319.888 270.763 321.232 272.363 322.256 274.24C323.323 276.117 324.048 278.229 324.432 280.576H323.152C322.768 278.443 322.064 276.523 321.04 274.816C320.059 273.067 318.8 271.573 317.264 270.336C315.771 269.099 314.021 268.16 312.016 267.52C310.053 266.837 307.877 266.496 305.488 266.496C302.288 266.496 299.429 267.093 296.912 268.288C294.437 269.483 292.325 271.104 290.576 273.152C288.869 275.2 287.568 277.611 286.672 280.384C285.776 283.115 285.328 286.037 285.328 289.152C285.328 292.267 285.755 295.211 286.608 297.984C287.461 300.715 288.741 303.104 290.448 305.152C292.155 307.2 294.267 308.821 296.784 310.016C299.344 311.211 302.309 311.808 305.68 311.808C308.197 311.808 310.565 311.381 312.784 310.528C315.003 309.632 316.923 308.416 318.544 306.88C320.208 305.301 321.509 303.445 322.448 301.312C323.387 299.136 323.856 296.789 323.856 294.272V291.904H306.128Z" fill="white"/>
</svg>
