<svg fill="none" height="24" viewBox="0 0 24 24" width="24" xmlns="http://www.w3.org/2000/svg"><path d="m9.25001 22-.4-3.2c-.21666-.0833-.421-.1833-.613-.3s-.37933-.2417-.562-.375l-2.975 1.25-2.75-4.75 2.575-1.95c-.01666-.1167-.025-.2293-.025-.338v-.674c0-.1087.00834-.2213.025-.338l-2.575-1.95 2.75-4.75 2.975 1.25c.18334-.13333.375-.25833.575-.375s.4-.21667.6-.3l.4-3.2h5.49999l.4 3.2c.2167.08333.421.18333.613.3s.3793.24167.562.375l2.975-1.25 2.75 4.75-2.575 1.95c.0167.1167.025.2293.025.338v.674c0 .1087-.0167.2213-.05.338l2.575 1.95-2.75 4.75-2.95-1.25c-.1833.1333-.375.2583-.575.375s-.4.2167-.6.3l-.4 3.2zm2.79999-6.5c.9667 0 1.7917-.3417 2.475-1.025s1.025-1.5083 1.025-2.475-.3417-1.7917-1.025-2.475c-.6833-.68333-1.5083-1.025-2.475-1.025-.9833 0-1.8127.34167-2.48799 1.025-.67533.6833-1.01266 1.5083-1.012 2.475 0 .9667.33734 1.7917 1.012 2.475.67469.6833 1.50399 1.025 2.48799 1.025zm0-2c-.4167 0-.771-.146-1.063-.438s-.4377-.646-.437-1.062c0-.4167.146-.771.438-1.063s.646-.4377 1.062-.437c.4167 0 .771.146 1.063.438s.4377.646.437 1.062c0 .4167-.146.771-.438 1.063s-.646.4377-1.062.437zm-1.05 6.5h1.975l.35-2.65c.5167-.1333.996-.3293 1.438-.588s.846-.571 1.212-.937l2.475 1.025.975-1.7-2.15-1.625c.0833-.2333.1417-.479.175-.737s.05-.5207.05-.788c0-.2667-.0167-.529-.05-.787s-.0917-.504-.175-.738l2.15-1.625-.975-1.7-2.475 1.05c-.3667-.38333-.7707-.704-1.212-.962s-.9207-.454-1.438-.588l-.325-2.65h-1.975l-.35 2.65c-.5167.13333-.99565.32933-1.43699.588-.44133.25867-.84566.571-1.213.937l-2.475-1.025-.975 1.7 2.15 1.6c-.08333.25-.14166.5-.175.75-.03333.25-.05.5167-.05.8 0 .2667.01667.525.05.775.03334.25.09167.5.175.75l-2.15 1.625.975 1.7 2.475-1.05c.36667.3833.771.7043 1.213.963s.92099.4543 1.43699.587z" fill="#e3e7eb"/></svg>